<svg xmlns="http://www.w3.org/2000/svg" viewBox="0 0 256 256"><defs><linearGradient id="bg" x1="20" y1="10" x2="236" y2="246"><stop stop-color="#21152f"/><stop offset=".48" stop-color="#120817"/><stop offset="1" stop-color="#050814"/></linearGradient><linearGradient id="fl" x1="68" y1="20" x2="190" y2="232"><stop stop-color="#fff7ad"/><stop offset=".28" stop-color="#ff9f1c"/><stop offset=".62" stop-color="#ff3d7f"/><stop offset="1" stop-color="#7c3aed"/></linearGradient><radialGradient id="core" cx="128" cy="152" r="78"><stop stop-color="#fff"/><stop offset=".38" stop-color="#ffe66d"/><stop offset="1" stop-color="#2cecff"/></radialGradient><filter id="glow"><feGaussianBlur stdDeviation="6" result="b"/><feMerge><feMergeNode in="b"/><feMergeNode in="SourceGraphic"/></feMerge></filter></defs><rect width="256" height="256" rx="58" fill="url(#bg)"/><circle cx="128" cy="136" r="92" fill="#ff3d7f" opacity=".12"/><path filter="url(#glow)" d="M132 18c19 47 76 72 76 139 0 54-38 85-89 85-45 0-76-33-76-78 0-38 19-65 48-91-4 25 7 42 23 50-3-42 6-75 18-105Z" fill="url(#fl)"/><path d="M135 86c18 26 45 43 45 78 0 34-25 56-58 56-29 0-52-22-52-51 0-25 14-44 36-61-2 18 8 31 22 36-4-24-1-43 7-58Z" fill="url(#core)"/><path d="M108 205c32-14 43-43 33-82 28 26 37 54 25 76-10 21-33 31-60 27-18-2-32-10-43-24 17 5 31 6 45 3Z" fill="#14091c" opacity=".22"/><path d="M74 62c20-15 47-25 83-21" stroke="#fff7ad" stroke-width="8" stroke-linecap="round" opacity=".35"/></svg>