<svg xmlns="http://www.w3.org/2000/svg" viewBox="0 0 256 256"><defs><linearGradient id="bg" x1="20" y1="10" x2="236" y2="246"><stop stop-color="#1a2437"/><stop offset=".52" stop-color="#0f172a"/><stop offset="1" stop-color="#070b16"/></linearGradient><linearGradient id="fl" x1="68" y1="20" x2="190" y2="232"><stop stop-color="#fff8c7"/><stop offset=".28" stop-color="#ffd166"/><stop offset=".62" stop-color="#ff8a1c"/><stop offset="1" stop-color="#ff4d8d"/></linearGradient><radialGradient id="core" cx="128" cy="150" r="78"><stop stop-color="#ffffff"/><stop offset=".35" stop-color="#fff1a8"/><stop offset="1" stop-color="#ffe66d"/></radialGradient><filter id="glow"><feGaussianBlur stdDeviation="6" result="b"/><feMerge><feMergeNode in="b"/><feMergeNode in="SourceGraphic"/></feMerge></filter></defs><rect width="256" height="256" rx="58" fill="url(#bg)"/><circle cx="128" cy="136" r="92" fill="#ff8a1c" opacity=".10"/><path filter="url(#glow)" d="M128 24c17 20 35 35 45 54 8 15 12 29 12 42 0 38-26 73-57 73s-57-29-57-67c0-24 10-45 28-64-2 25 9 43 24 51-2-20 2-42 5-89Z" fill="url(#fl)"/><path d="M133 86c14 18 27 33 27 55 0 24-17 41-39 41-20 0-34-15-34-35 0-17 8-31 20-45-1 13 5 22 14 26-2-17 2-29 12-42Z" fill="url(#core)"/><path d="M109 205c27-13 39-34 36-62 18 16 25 35 21 51-6 23-25 35-51 35-18 0-32-6-43-18 14 2 25 1 37-6Z" fill="#120914" opacity=".22"/><path d="M76 63c19-14 45-23 79-20" stroke="#fff6b0" stroke-width="8" stroke-linecap="round" opacity=".35"/></svg>